<svg xmlns="http://www.w3.org/2000/svg" viewBox="0 0 480 260"><defs><radialGradient id="sky"><stop stop-color="#19243f"/><stop offset="1" stop-color="#101626"/></radialGradient><linearGradient id="shade" x2="0" y2="1"><stop offset=".35" stop-color="#111827" stop-opacity="0"/><stop offset="1" stop-color="#131b2a"/></linearGradient></defs><path fill="url(#sky)" d="M0 0h480v260H0z"/><circle cx="23" cy="11" r="0.5" fill="#7c8aaa" opacity=".5"/><circle cx="160" cy="48" r="0.8" fill="#7c8aaa" opacity=".5"/><circle cx="297" cy="85" r="1.1" fill="#7c8aaa" opacity=".5"/><circle cx="434" cy="122" r="0.5" fill="#7c8aaa" opacity=".5"/><circle cx="91" cy="159" r="0.8" fill="#7c8aaa" opacity=".5"/><circle cx="228" cy="6" r="1.1" fill="#7c8aaa" opacity=".5"/><circle cx="365" cy="43" r="0.5" fill="#7c8aaa" opacity=".5"/><circle cx="22" cy="80" r="0.8" fill="#7c8aaa" opacity=".5"/><circle cx="159" cy="117" r="1.1" fill="#7c8aaa" opacity=".5"/><circle cx="296" cy="154" r="0.5" fill="#7c8aaa" opacity=".5"/><circle cx="433" cy="1" r="0.8" fill="#7c8aaa" opacity=".5"/><circle cx="90" cy="38" r="1.1" fill="#7c8aaa" opacity=".5"/><circle cx="227" cy="75" r="0.5" fill="#7c8aaa" opacity=".5"/><circle cx="364" cy="112" r="0.8" fill="#7c8aaa" opacity=".5"/><circle cx="21" cy="149" r="1.1" fill="#7c8aaa" opacity=".5"/><circle cx="158" cy="186" r="0.5" fill="#7c8aaa" opacity=".5"/><circle cx="295" cy="33" r="0.8" fill="#7c8aaa" opacity=".5"/><circle cx="432" cy="70" r="1.1" fill="#7c8aaa" opacity=".5"/><circle cx="89" cy="107" r="0.5" fill="#7c8aaa" opacity=".5"/><circle cx="226" cy="144" r="0.8" fill="#7c8aaa" opacity=".5"/><circle cx="363" cy="181" r="1.1" fill="#7c8aaa" opacity=".5"/><circle cx="20" cy="28" r="0.5" fill="#7c8aaa" opacity=".5"/><circle cx="157" cy="65" r="0.8" fill="#7c8aaa" opacity=".5"/><circle cx="294" cy="102" r="1.1" fill="#7c8aaa" opacity=".5"/><circle cx="431" cy="139" r="0.5" fill="#7c8aaa" opacity=".5"/><circle cx="88" cy="176" r="0.8" fill="#7c8aaa" opacity=".5"/><circle cx="225" cy="23" r="1.1" fill="#7c8aaa" opacity=".5"/><circle cx="362" cy="60" r="0.5" fill="#7c8aaa" opacity=".5"/><circle cx="350" cy="66" r="42" fill="#c9d0c8" opacity=".6"/><circle cx="367" cy="53" r="39" fill="#19243f"/><path d="M30 230V140L52 118 74 140V230M100 230V95L126 60 152 95V230M173 230V141L191 111 209 141V230M268 230V116L303 78 338 116V230M365 230V155L386 127 407 155V230" fill="#0c1528" stroke="#788298" stroke-width="1"/><path d="M285 230V153Q303 120 321 153V230M115 142V103L126 89 137 103V142" fill="#9ba9bf" opacity=".18"/><path fill="url(#shade)" d="M0 0h480v260H0z"/></svg>